<svg width="41" height="40" viewBox="0 0 41 40" fill="none" xmlns="http://www.w3.org/2000/svg">
<g clip-path="url(#clip0_48_12)">
<path d="M4.23853 8.33331L15.9052 3.33331L25.9052 8.33331L36.4102 3.83165C36.537 3.77729 36.6753 3.75526 36.8128 3.76755C36.9502 3.77984 37.0824 3.82606 37.1975 3.90205C37.3127 3.97805 37.4072 4.08145 37.4725 4.20298C37.5378 4.3245 37.572 4.46034 37.5719 4.59831V31.6666L25.9052 36.6666L15.9052 31.6666L5.40019 36.1683C5.27338 36.2227 5.13506 36.2447 4.99764 36.2324C4.86021 36.2201 4.72799 36.1739 4.61284 36.0979C4.49768 36.0219 4.4032 35.9185 4.33787 35.797C4.27254 35.6755 4.2384 35.5396 4.23853 35.4016V8.33331ZM27.5719 32.325L34.2385 29.4683V8.38831L27.5719 11.245V32.325ZM24.2385 32.1066V11.2266L17.5719 7.89331V28.7733L24.2385 32.1066ZM14.2385 28.755V7.67498L7.57186 10.5316V31.6116L14.2385 28.755Z" fill="#AF1917"/>
</g>
<defs>
<clipPath id="clip0_48_12">
<rect width="40" height="40" fill="white" transform="translate(0.905273)"/>
</clipPath>
</defs>
</svg>
