<?xml version="1.0" encoding="UTF-8"?>
<svg id="_Слой_1" data-name="Слой 1" xmlns="http://www.w3.org/2000/svg" viewBox="0 0 348.26678 393.76075">
  <defs>
    <style>
      .cls-1 {
        fill: #af1917;
      }

      .cls-1, .cls-2 {
        stroke-width: 0px;
      }

      .cls-2 {
        fill: #fff;
      }
    </style>
  </defs>
  <g>
    <circle class="cls-1" cx="174.13339" cy="174.13339" r="174.13339"/>
    <polygon class="cls-1" points="174.13339 340.94587 143.28093 340.94587 174.13339 393.76075 204.98585 340.94587 174.13339 340.94587"/>
  </g>
  <g>
    <path class="cls-2" d="M53.35176,282.19654l25.36874-46.94795-18.51611,11.92881,22.74322-43.4664v-102.19962l12.71395-12.71438h132.48621l27.19173-18.7075-7.24541,19.09985,46.82094-26.58319-28.02775,41.20712,21.31606-9.94967-21.87457,30.80595,10.5495-6.84393-8.09753,19.38084.04741,109.95004-22.07466,22.07509H86.75018l4.68383-9.71739-38.08225,22.68232ZM83.58354,229.9958l-25.59319,47.36379,37.61943-22.40567-6.02269,12.49602h156.42866l21.03071-21.03114-.04741-109.569,6.01312-14.39252-13.53083,8.77871,23.3648-32.90602-21.07508,9.83831,27.36311-40.23104-44.45901,25.24172,6.97573-18.38996-22.94983,15.78967H96.39928l-11.67,11.67044v101.90036l-19.81843,37.87607,18.6727-12.02973Z"/>
    <g>
      <g>
        <polygon class="cls-2" points="200.01276 100.00783 196.50769 230.03124 194.6674 230.03124 191.16241 100.00783 179.42779 100.00783 176.67122 102.7644 183.14606 231.1827 191.6803 239.71698 195.58755 239.71698 199.49475 239.71698 208.02903 231.1827 214.50746 102.69454 211.82075 100.00783 200.01276 100.00783"/>
        <path class="cls-2" d="M160.53535,100.00783h-7.81445l-8.53428,8.53428-6.4784,128.48816,2.68672,2.68672h11.80799l.9678-36.44976c.06705-2.52525-.82517-4.98215-2.49703-6.87589l-1.91385-2.16789.53975-1.18238,8.90748,8.80464c1.20338,1.18946,1.90071,2.7979,1.9463,4.4893l.89989,33.38198h11.73462l2.75657-2.75657-6.47488-128.4183-8.53424-8.53428ZM163.09179,190.13174l-7.26875-7.14278c-1.29907-1.27657-2.00905-3.03573-1.95997-4.85644l1.84489-68.43897h1.84029l1.855,70.12161c.073,2.75987,1.15565,5.39717,3.04281,7.41228l1.3504,1.44196-.70466,1.46233Z"/>
        <path class="cls-2" d="M245.63441,111.88549c-2.05165.01142-3.7088,1.67785-3.7088,3.7295l.00004,24.31705,24.68865-27.43257-10.0585,2.90618v-8.89549l16.75244-23.60831-27.01934,17.10599h-9.28515l5.46374-13.20777-23.00641,21.63446c.04234.00809,0,128.46027,0,128.46027l2.8222,2.8222h25.69309l8.57942-8.57942v-52.85659l-14.63015,14.63015v34.32054l-1.93039,1.93036h-11.98858v-1.30948l2.37581-.01321c2.05165-.01142,3.7088-1.67785,3.7088-3.7295v-48.09977l7.36024-7.36024v11.64615l14.63015-14.63015v-20.34785l3.81242-11.82914-25.80281,25.80281-.00004-46.79849,1.93039-1.93036h11.98858v1.30948l-2.37581.01321Z"/>
        <path class="cls-2" d="M98.13,100.00783l-2.8222,2.8222v97.39768l-13.90769,24.94941,13.90769-11.95046v18.54307l-17.42977,25.1061,25.97532-17.15885h6.08464v-39.45936l5.48065-5.48065,2.35372,2.35372v41.08619l-12.41513,15.90294,26.97217-17.07611.07311-.01344v-41.98783l-8.62465-8.62468,8.62465-8.62465v-69.20585l-8.57942-8.57942h-25.69309ZM117.77237,173.16198c0,1.62817-.64678,3.18963-1.79806,4.34091l-9.57788,9.57788-1.29694-.95114,3.00915-3.32792c1.17744-1.30214,1.82935-2.99515,1.82935-4.75068v-63.32785c0-2.05165-1.65715-3.71808-3.7088-3.7295l-2.37585-.01321v-1.30948h11.98862l1.93039,1.93036v61.56064Z"/>
      </g>
      <polygon class="cls-2" points="138.5056 250.79916 136.16934 253.82311 133.82363 250.79916 130.42631 250.79916 134.62819 256.21362 134.62819 259.80288 137.72567 259.80288 137.72567 256.16371 141.90291 250.79916 138.5056 250.79916"/>
      <polygon class="cls-2" points="192.45186 247.52718 192.45186 250.80639 197.81997 250.80639 197.81997 260.14092 202.01689 260.14092 202.01689 250.80639 207.08391 250.80639 206.64759 247.52718 192.45186 247.52718"/>
      <polygon class="cls-2" points="214.02294 255.24784 220.89562 255.24784 220.89562 252.42026 214.02294 252.42026 213.75545 250.79916 221.44294 250.79916 221.44294 247.52718 209.34248 247.52718 210.26786 253.83384 210.26531 253.84957 209.34248 260.14092 221.52841 260.14092 221.52841 256.86852 213.75545 256.86852 214.02294 255.24784"/>
      <path class="cls-2" d="M229.23036,255.86362h1.47992l.03275.04763,2.87989,4.22967h4.77911l-3.27198-4.61198.13311-.04933c.1952-.16458,5.25498-5.84525,7.39661-8.25607l-17.62505.30194v12.61545h4.19565v-4.2773ZM229.23036,250.40579h5.73128l-2.02043,2.61325h-3.71085v-2.61325Z"/>
      <polygon class="cls-2" points="182.03886 250.79916 189.72635 250.79916 189.72635 247.52718 177.6259 247.52718 178.55127 253.83384 178.54872 253.84957 178.34374 255.24784 185.61533 255.24784 185.61533 256.86852 178.10602 256.86852 177.6259 260.14092 189.81225 260.14092 189.81225 252.41601 182.30677 252.42026 182.03886 250.79916"/>
      <polygon class="cls-2" points="165.82228 247.52718 161.62535 247.52718 161.62535 260.14092 174.88975 260.14092 174.88975 247.52718 170.69325 247.52718 170.69325 256.85279 165.82228 256.85279 165.82228 247.52718"/>
      <path class="cls-2" d="M159.96268,247.52718h-15.48225l.95812,6.13528-.00255.01616-.95642,6.46231h14.13619v-6.51079l-2.54839-.06294,3.89531-6.04002ZM153.96168,250.79916l-.87572,1.5352h-3.8783l-.1852-1.5352h4.93922ZM149.22126,254.99098h5.58387v1.87754h-5.96278l.37891-1.87754Z"/>
      <path class="cls-2" d="M130.93686,250.79916h-11.05127l.68391,4.37938-.00182.01154-.68269,4.61281h10.09044v-4.64741l-1.81905-.04493,2.78048-4.31138ZM126.65333,253.1347l-.62509,1.09583h-2.76834l-.1322-1.09583h3.52563ZM123.26961,256.12684h3.98578v1.34019h-4.25625l.27047-1.34019Z"/>
    </g>
  </g>
</svg>