<svg width="85" height="85" viewBox="0 0 85 85" fill="none" xmlns="http://www.w3.org/2000/svg">
<g clip-path="url(#clip0_22_3243)">
<g clip-path="url(#clip1_22_3243)">
<g clip-path="url(#clip2_22_3243)">
<path d="M42.4878 84.9756C65.9532 84.9756 84.9756 65.9532 84.9756 42.4878C84.9756 19.0224 65.9532 0 42.4878 0C19.0224 0 0 19.0224 0 42.4878C0 65.9532 19.0224 84.9756 42.4878 84.9756Z" fill="#878787"/>
<path d="M13.032 68.8691L19.2307 57.4235L14.7159 60.3276L20.2556 49.7117V24.7706L23.355 21.6713H55.6906L62.3286 17.1077L60.5715 21.7689L71.9927 15.2773L65.1595 25.3319L70.3576 22.9159L65.013 30.4324L67.5755 28.7729L65.5987 33.5073V60.352L60.2054 65.7453H21.1586L22.3056 63.3781C22.3056 63.3293 13.032 68.8691 13.032 68.8691ZM20.4021 56.1301L14.1546 67.6977L23.3306 62.2311L21.8663 65.2817H60.0346L65.1595 60.1568V33.4097L66.6237 29.8955L63.3291 32.0431L69.0397 24.0141L63.8904 26.4057L70.5772 16.5952L59.7173 22.745L61.4256 18.2547L55.837 22.1105H23.5258L20.6705 24.9658V49.8338L15.8385 59.0586L20.4021 56.1301Z" fill="white"/>
<path d="M48.8085 24.4043L47.9544 56.1298H47.5151L46.6609 24.4043H43.7812L43.1223 25.0876L44.6842 56.4227L46.783 58.497H47.7347H48.6865L50.7608 56.4227L52.3471 25.0632L51.6882 24.4043H48.8085Z" fill="white"/>
<path d="M39.1689 24.4043H37.2654L35.191 26.4787L33.6047 57.8381L34.2637 58.497H37.1434L37.3874 49.6139C37.4118 49.0038 37.1922 48.3937 36.7773 47.93L36.3136 47.3931L36.4356 47.1002L38.6076 49.2478C38.9005 49.5407 39.0713 49.9311 39.0713 50.346L39.2909 58.497H42.1462L42.8295 57.8137L41.2433 26.4787L39.1689 24.4043ZM39.8034 46.3925L38.0219 44.6598C37.7047 44.3426 37.5338 43.9277 37.5338 43.464L37.9731 26.7715H38.4124L38.8761 43.8789C38.9005 44.5622 39.1689 45.1967 39.6082 45.6848L39.9498 46.0265L39.8034 46.3925Z" fill="white"/>
<path d="M59.9369 27.3087C59.4244 27.3087 59.0339 27.7235 59.0339 28.2116V34.1419L65.0618 27.4551L62.597 28.1628V25.9908L66.6969 20.2314L60.1077 24.4046H57.8381L59.1804 21.1832L53.5674 26.4545V57.814L54.2507 58.4973H60.5226L62.6214 56.3985V43.4887L59.0583 47.0517V55.4224L58.5947 55.8861H55.6661V55.5688H56.2519C56.7643 55.5688 57.1548 55.1539 57.1548 54.6658V42.9518L58.9607 41.1459V43.9768L62.5237 40.4138V35.4597L63.4511 32.58L57.1548 38.8763V27.4551L57.6185 26.9914H60.547V27.3087H59.9369Z" fill="white"/>
<path d="M23.9406 24.4043L23.2573 25.0876V48.8573L19.8651 54.934L23.2573 52.0055V56.5203L19.011 62.6457L25.3561 58.4482H26.8448V48.8085L28.187 47.4663L28.7727 48.052V58.0821L25.7466 61.9624L32.3357 57.7893H32.3601V47.5395L30.2613 45.4407L32.3601 43.342V26.4542L30.2613 24.3555L23.9406 24.4043ZM28.7483 42.2682C28.7483 42.6587 28.6019 43.0491 28.309 43.3176L25.9662 45.6604L25.6489 45.4163L26.3811 44.611C26.6739 44.2937 26.8203 43.8789 26.8203 43.4396V27.9917C26.8203 27.4792 26.4055 27.0887 25.9174 27.0887H25.3317V26.7715H28.2602L28.7239 27.2352L28.7483 42.2682Z" fill="white"/>
<path d="M33.8 61.2061L33.2387 61.9382L32.653 61.2061H31.8232L32.8482 62.5239V63.4024H33.6048V62.5239L34.6297 61.2061H33.8Z" fill="white"/>
<path d="M46.9783 60.4004V61.2057H48.2717V63.4753H49.2967V61.2057H50.5413L50.4193 60.4004H46.9783Z" fill="white"/>
<path d="M52.2251 62.2795H53.909V61.5962H52.2251L52.1763 61.2057H54.031V60.4004H51.0781L51.3222 61.9379L51.0781 63.4753H54.0554V62.6944H52.1763L52.2251 62.2795Z" fill="white"/>
<path d="M55.9346 62.4503H56.3007L57.0084 63.4753H58.1798L57.3745 62.3527H57.3989C57.4477 62.3039 58.6923 60.9373 59.2048 60.3271L54.9097 60.4004V63.4753H55.9346V62.4503ZM55.9346 61.1081H57.3257L56.8376 61.7426H55.9346V61.1081Z" fill="white"/>
<path d="M44.4158 61.2057H46.295V60.4004H43.342L43.5861 61.9379H43.5617L43.5129 62.2795H45.2944V62.6944H43.4641L43.342 63.4753H46.3194V61.5962H44.489L44.4158 61.2057Z" fill="white"/>
<path d="M40.4622 60.4004H39.4373V63.4753H42.683V60.4004H41.658V62.6944H40.4622V60.4004Z" fill="white"/>
<path d="M39.0468 60.4004H35.2642L35.5082 61.8891L35.2642 63.4753H38.7052V61.8891L38.0951 61.8646L39.0468 60.4004ZM37.5826 61.2057L37.3629 61.5718H36.4112L36.3624 61.2057H37.5826ZM36.4112 62.2307H37.7778V62.6944H36.3135L36.4112 62.2307Z" fill="white"/>
<path d="M31.9452 61.2061H29.2363L29.4072 62.2798L29.2363 63.4024H31.7256V62.2798H31.2863L31.9452 61.2061ZM30.9202 61.7674L30.7738 62.0358H30.0905L30.0661 61.7674C30.0417 61.7674 30.9202 61.7674 30.9202 61.7674ZM30.0905 62.4995H31.0666V62.8167H30.0173L30.0905 62.4995Z" fill="white"/>
</g>
</g>
</g>
<defs>
<clipPath id="clip0_22_3243">
<rect width="85" height="85" fill="white"/>
</clipPath>
<clipPath id="clip1_22_3243">
<rect width="85" height="85" fill="white"/>
</clipPath>
<clipPath id="clip2_22_3243">
<rect width="85" height="85" fill="white"/>
</clipPath>
</defs>
</svg>
