<svg width="252" height="55" viewBox="0 0 252 55" fill="none" xmlns="http://www.w3.org/2000/svg">
<mask id="path-1-inside-1_1095_23911" fill="white">
<path fill-rule="evenodd" clip-rule="evenodd" d="M2.05025 7.97221C0.7375 9.28496 0 11.0654 0 12.922V48C0 51.866 3.13401 55 7 55H233.101C234.957 55 236.738 54.2625 238.05 52.9497L249.95 41.0503C251.263 39.7375 252 37.957 252 36.1005V7C252 3.13401 248.866 0 245 0H12.922C11.0654 0 9.28496 0.737498 7.97221 2.05025L2.05025 7.97221Z"/>
</mask>
<path d="M249.95 41.0503L247.828 38.9289L249.95 41.0503ZM238.05 52.9497L240.172 55.0711L238.05 52.9497ZM-3 12.922V48H3V12.922H-3ZM7 58H233.101V52H7V58ZM240.172 55.0711L252.071 43.1716L247.828 38.9289L235.929 50.8284L240.172 55.0711ZM255 36.1005V7H249V36.1005H255ZM245 -3H12.922V3H245V-3ZM5.85089 -0.0710677L-0.0710662 5.85089L4.17157 10.0935L10.0935 4.17157L5.85089 -0.0710677ZM12.922 -3C10.2698 -3 7.72625 -1.94643 5.85089 -0.0710677L10.0935 4.17157C10.8437 3.42143 11.8611 3 12.922 3V-3ZM255 7C255 1.47715 250.523 -3 245 -3V3C247.209 3 249 4.79086 249 7H255ZM252.071 43.1716C253.946 41.2962 255 38.7527 255 36.1005H249C249 37.1614 248.579 38.1788 247.828 38.9289L252.071 43.1716ZM233.101 58C235.753 58 238.296 56.9464 240.172 55.0711L235.929 50.8284C235.179 51.5786 234.161 52 233.101 52V58ZM-3 48C-3 53.5229 1.47715 58 7 58V52C4.79086 52 3 50.2091 3 48H-3ZM3 12.922C3 11.8611 3.42143 10.8437 4.17157 10.0935L-0.0710662 5.85089C-1.94643 7.72625 -3 10.2698 -3 12.922H3Z" fill="white" mask="url(#path-1-inside-1_1095_23911)"/>
</svg>
